<svg width="40" height="40" viewBox="0 0 40 40" fill="none" xmlns="http://www.w3.org/2000/svg">
<path d="M18.3333 28.3333H21.6666V18.3333H18.3333V28.3333ZM20 15C20.4722 15 20.8683 14.84 21.1883 14.52C21.5072 14.2011 21.6666 13.8056 21.6666 13.3333C21.6666 12.8611 21.5072 12.465 21.1883 12.145C20.8683 11.8261 20.4722 11.6667 20 11.6667C19.5278 11.6667 19.1322 11.8261 18.8133 12.145C18.4933 12.465 18.3333 12.8611 18.3333 13.3333C18.3333 13.8056 18.4933 14.2011 18.8133 14.52C19.1322 14.84 19.5278 15 20 15ZM20 36.6667C17.6944 36.6667 15.5278 36.2289 13.5 35.3533C11.4722 34.4789 9.70831 33.2917 8.20831 31.7917C6.70831 30.2917 5.52109 28.5278 4.64665 26.5C3.77109 24.4722 3.33331 22.3056 3.33331 20C3.33331 17.6945 3.77109 15.5278 4.64665 13.5C5.52109 11.4722 6.70831 9.70834 8.20831 8.20834C9.70831 6.70834 11.4722 5.52057 13.5 4.64501C15.5278 3.77057 17.6944 3.33334 20 3.33334C22.3055 3.33334 24.4722 3.77057 26.5 4.64501C28.5278 5.52057 30.2916 6.70834 31.7916 8.20834C33.2916 9.70834 34.4789 11.4722 35.3533 13.5C36.2289 15.5278 36.6666 17.6945 36.6666 20C36.6666 22.3056 36.2289 24.4722 35.3533 26.5C34.4789 28.5278 33.2916 30.2917 31.7916 31.7917C30.2916 33.2917 28.5278 34.4789 26.5 35.3533C24.4722 36.2289 22.3055 36.6667 20 36.6667Z" fill="#000"/>
</svg>
