<svg width="45" height="45" viewBox="0 0 45 45" fill="none" xmlns="http://www.w3.org/2000/svg">
<path d="M37.5 31.875C38.4946 31.875 39.4484 31.4799 40.1516 30.7766C40.8549 30.0734 41.25 29.1196 41.25 28.125V7.5C41.25 6.50544 40.8549 5.55161 40.1516 4.84835C39.4484 4.14509 38.4946 3.75 37.5 3.75H17.7375C18.3938 4.89375 18.75 6.1875 18.75 7.5H37.5V28.125H20.625V31.875M28.125 13.125V16.875H16.875V41.25H13.125V30H9.375V41.25H5.625V26.25H2.8125V16.875C2.8125 15.8804 3.20759 14.9266 3.91085 14.2233C4.61411 13.5201 5.56794 13.125 6.5625 13.125H28.125ZM15 7.5C15 8.49456 14.6049 9.44839 13.9017 10.1517C13.1984 10.8549 12.2446 11.25 11.25 11.25C10.2554 11.25 9.30161 10.8549 8.59835 10.1517C7.89509 9.44839 7.5 8.49456 7.5 7.5C7.5 6.50544 7.89509 5.55161 8.59835 4.84835C9.30161 4.14509 10.2554 3.75 11.25 3.75C12.2446 3.75 13.1984 4.14509 13.9017 4.84835C14.6049 5.55161 15 6.50544 15 7.5Z" fill="#000"/>
</svg>
